<mxfile host="app.diagrams.net" modified="2024-04-24T13:03:05.701Z" agent="Mozilla/5.0 (Macintosh; Intel Mac OS X 10_15_7) AppleWebKit/537.36 (KHTML, like Gecko) Chrome/123.0.0.0 Safari/537.36 Edg/123.0.0.0" etag="diw__RQI86PaNe0TJAsN" version="24.2.2" type="github">
  <diagram name="第 1 页" id="UiSb-AJgzE3sTe0nSy-w">
    <mxGraphModel dx="526" dy="373" grid="0" gridSize="10" guides="1" tooltips="1" connect="1" arrows="1" fold="1" page="1" pageScale="1" pageWidth="1169" pageHeight="1654" math="0" shadow="0">
      <root>
        <mxCell id="0" />
        <mxCell id="1" parent="0" />
        <mxCell id="lk80hKLOs_8HjmvmfNgm-3" value="objA" style="shape=umlLifeline;perimeter=lifelinePerimeter;whiteSpace=wrap;html=1;container=1;dropTarget=0;collapsible=0;recursiveResize=0;outlineConnect=0;portConstraint=eastwest;newEdgeStyle={&quot;curved&quot;:0,&quot;rounded&quot;:0};size=21;fontStyle=1;strokeWidth=2;fillColor=default;" vertex="1" parent="1">
          <mxGeometry x="72" y="70" width="55" height="150.91428571428574" as="geometry" />
        </mxCell>
        <mxCell id="lk80hKLOs_8HjmvmfNgm-4" value="&lt;font style=&quot;font-size: 9px;&quot;&gt;int p=1 MASK1&lt;/font&gt;" style="shape=umlFrame;whiteSpace=wrap;html=1;pointerEvents=0;width=75;height=19;fillColor=default;align=left;fontStyle=1;strokeWidth=2;" vertex="1" parent="1">
          <mxGeometry x="50.81" y="170" width="188.38" height="40.95" as="geometry" />
        </mxCell>
        <mxCell id="lk80hKLOs_8HjmvmfNgm-5" value="example" style="shape=umlFrame;whiteSpace=wrap;html=1;pointerEvents=0;width=60;height=22;fontStyle=1;strokeWidth=2;fillColor=default;" vertex="1" parent="1">
          <mxGeometry x="18" y="41" width="253" height="188" as="geometry" />
        </mxCell>
        <mxCell id="lk80hKLOs_8HjmvmfNgm-7" value="objB" style="shape=umlLifeline;perimeter=lifelinePerimeter;whiteSpace=wrap;html=1;container=1;dropTarget=0;collapsible=0;recursiveResize=0;outlineConnect=0;portConstraint=eastwest;newEdgeStyle={&quot;curved&quot;:0,&quot;rounded&quot;:0};size=21;aspect=fixed;fontStyle=1;strokeWidth=2;fillColor=default;" vertex="1" parent="1">
          <mxGeometry x="161" y="70" width="56.41" height="150" as="geometry" />
        </mxCell>
        <mxCell id="lk80hKLOs_8HjmvmfNgm-8" value="&lt;div style=&quot;text-align: left;&quot;&gt;&lt;br&gt;&lt;/div&gt;" style="html=1;verticalAlign=bottom;endArrow=block;curved=0;rounded=0;strokeWidth=1.5;endSize=3;" edge="1" parent="1">
          <mxGeometry width="80" relative="1" as="geometry">
            <mxPoint x="101.5" y="199.13" as="sourcePoint" />
            <mxPoint x="188.5" y="199" as="targetPoint" />
          </mxGeometry>
        </mxCell>
        <mxCell id="lk80hKLOs_8HjmvmfNgm-10" value="&lt;div style=&quot;text-align: left;&quot;&gt;&lt;br&gt;&lt;/div&gt;" style="html=1;verticalAlign=bottom;endArrow=block;curved=0;rounded=0;strokeWidth=1.5;endSize=3;" edge="1" parent="1">
          <mxGeometry width="80" relative="1" as="geometry">
            <mxPoint x="101.5" y="110.13" as="sourcePoint" />
            <mxPoint x="188.5" y="110" as="targetPoint" />
          </mxGeometry>
        </mxCell>
        <mxCell id="lk80hKLOs_8HjmvmfNgm-11" value="&lt;div style=&quot;text-align: left;&quot;&gt;&lt;br&gt;&lt;/div&gt;" style="html=1;verticalAlign=bottom;endArrow=block;curved=0;rounded=0;strokeWidth=1.5;endSize=3;" edge="1" parent="1">
          <mxGeometry width="80" relative="1" as="geometry">
            <mxPoint x="188.5" y="134.81" as="sourcePoint" />
            <mxPoint x="101.5" y="134.94" as="targetPoint" />
          </mxGeometry>
        </mxCell>
        <mxCell id="lk80hKLOs_8HjmvmfNgm-12" value="&lt;div style=&quot;text-align: left;&quot;&gt;&lt;br&gt;&lt;/div&gt;" style="html=1;verticalAlign=bottom;endArrow=block;curved=0;rounded=0;strokeWidth=1.5;endSize=3;" edge="1" parent="1">
          <mxGeometry width="80" relative="1" as="geometry">
            <mxPoint x="101.5" y="157.13" as="sourcePoint" />
            <mxPoint x="188.5" y="157" as="targetPoint" />
          </mxGeometry>
        </mxCell>
        <mxCell id="lk80hKLOs_8HjmvmfNgm-13" value="&lt;font style=&quot;font-size: 15px;&quot;&gt;e&lt;/font&gt;&lt;sub&gt;0&lt;/sub&gt;" style="text;html=1;align=center;verticalAlign=middle;resizable=0;points=[];autosize=1;strokeColor=none;fillColor=none;" vertex="1" parent="1">
          <mxGeometry x="72" y="93" width="32" height="32" as="geometry" />
        </mxCell>
        <mxCell id="lk80hKLOs_8HjmvmfNgm-14" value="&lt;font style=&quot;font-size: 15px;&quot;&gt;e&lt;/font&gt;&lt;sub&gt;1&lt;/sub&gt;" style="text;html=1;align=center;verticalAlign=middle;resizable=0;points=[];autosize=1;strokeColor=none;fillColor=none;" vertex="1" parent="1">
          <mxGeometry x="183" y="93" width="32" height="32" as="geometry" />
        </mxCell>
        <mxCell id="lk80hKLOs_8HjmvmfNgm-15" value="&lt;font style=&quot;font-size: 15px;&quot;&gt;e&lt;/font&gt;&lt;sub&gt;2&lt;/sub&gt;" style="text;html=1;align=center;verticalAlign=middle;resizable=0;points=[];autosize=1;strokeColor=none;fillColor=none;" vertex="1" parent="1">
          <mxGeometry x="183" y="116" width="32" height="32" as="geometry" />
        </mxCell>
        <mxCell id="lk80hKLOs_8HjmvmfNgm-16" value="&lt;font style=&quot;font-size: 15px;&quot;&gt;e&lt;/font&gt;&lt;sub&gt;3&lt;/sub&gt;" style="text;html=1;align=center;verticalAlign=middle;resizable=0;points=[];autosize=1;strokeColor=none;fillColor=none;" vertex="1" parent="1">
          <mxGeometry x="72" y="116" width="32" height="32" as="geometry" />
        </mxCell>
        <mxCell id="lk80hKLOs_8HjmvmfNgm-17" value="&lt;font style=&quot;font-size: 15px;&quot;&gt;e&lt;/font&gt;&lt;sub&gt;4&lt;/sub&gt;" style="text;html=1;align=center;verticalAlign=middle;resizable=0;points=[];autosize=1;strokeColor=none;fillColor=none;" vertex="1" parent="1">
          <mxGeometry x="72" y="138" width="32" height="32" as="geometry" />
        </mxCell>
        <mxCell id="lk80hKLOs_8HjmvmfNgm-18" value="&lt;font style=&quot;font-size: 15px;&quot;&gt;e&lt;/font&gt;&lt;sub&gt;5&lt;/sub&gt;" style="text;html=1;align=center;verticalAlign=middle;resizable=0;points=[];autosize=1;strokeColor=none;fillColor=none;" vertex="1" parent="1">
          <mxGeometry x="183" y="138" width="32" height="32" as="geometry" />
        </mxCell>
        <mxCell id="lk80hKLOs_8HjmvmfNgm-19" value="&lt;font style=&quot;font-size: 15px;&quot;&gt;e&lt;/font&gt;&lt;span style=&quot;font-size: 10px;&quot;&gt;&lt;sub&gt;6&lt;/sub&gt;&lt;/span&gt;" style="text;html=1;align=center;verticalAlign=middle;resizable=0;points=[];autosize=1;strokeColor=none;fillColor=none;" vertex="1" parent="1">
          <mxGeometry x="62.99638297872343" y="183" width="31" height="31" as="geometry" />
        </mxCell>
        <mxCell id="lk80hKLOs_8HjmvmfNgm-20" value="&lt;font style=&quot;font-size: 15px;&quot;&gt;e&lt;/font&gt;&lt;span style=&quot;font-size: 8.33333px;&quot;&gt;7&lt;/span&gt;" style="text;html=1;align=center;verticalAlign=middle;resizable=0;points=[];autosize=1;strokeColor=none;fillColor=none;" vertex="1" parent="1">
          <mxGeometry x="191.00172981878097" y="184" width="31" height="30" as="geometry" />
        </mxCell>
        <mxCell id="lk80hKLOs_8HjmvmfNgm-21" value="&lt;font style=&quot;font-size: 10px;&quot;&gt;{MASK1:=0}&lt;/font&gt;" style="text;html=1;align=center;verticalAlign=middle;whiteSpace=wrap;rounded=0;" vertex="1" parent="1">
          <mxGeometry x="208" y="94" width="60" height="30" as="geometry" />
        </mxCell>
        <mxCell id="lk80hKLOs_8HjmvmfNgm-22" value="&lt;font style=&quot;font-size: 10px;&quot;&gt;{MASK1:=1&lt;/font&gt;&lt;span style=&quot;font-size: 10px; background-color: initial;&quot;&gt;}&lt;/span&gt;" style="text;html=1;align=center;verticalAlign=middle;whiteSpace=wrap;rounded=0;" vertex="1" parent="1">
          <mxGeometry x="21" y="138" width="60" height="30" as="geometry" />
        </mxCell>
      </root>
    </mxGraphModel>
  </diagram>
</mxfile>
